<mxfile host="Electron" modified="2023-06-14T15:14:08.390Z" agent="Mozilla/5.0 (Macintosh; Intel Mac OS X 10_15_7) AppleWebKit/537.36 (KHTML, like Gecko) draw.io/21.3.7 Chrome/112.0.5615.204 Electron/24.5.0 Safari/537.36" etag="ulSOIhxZn5s8aRgeaWVC" version="21.3.7" type="device">
  <diagram name="Page-1" id="f1L5-6NdSuR04RsPnS83">
    <mxGraphModel dx="321" dy="206" grid="1" gridSize="10" guides="1" tooltips="1" connect="1" arrows="1" fold="1" page="0" pageScale="1" pageWidth="827" pageHeight="1169" math="0" shadow="0">
      <root>
        <mxCell id="0" />
        <mxCell id="1" parent="0" />
        <mxCell id="08gfz9l8Pu61K-Imsafm-9" style="edgeStyle=orthogonalEdgeStyle;rounded=0;orthogonalLoop=1;jettySize=auto;html=1;entryX=0;entryY=0.5;entryDx=0;entryDy=0;endArrow=classic;endFill=1;endSize=4;startSize=4;" edge="1" parent="1" source="08gfz9l8Pu61K-Imsafm-1" target="08gfz9l8Pu61K-Imsafm-6">
          <mxGeometry relative="1" as="geometry" />
        </mxCell>
        <mxCell id="08gfz9l8Pu61K-Imsafm-1" value="resource events&lt;br&gt;handler funcs" style="rounded=0;whiteSpace=wrap;html=1;fontFamily=Courier New;fontSize=14;" vertex="1" parent="1">
          <mxGeometry x="200" y="280" width="140" height="40" as="geometry" />
        </mxCell>
        <mxCell id="08gfz9l8Pu61K-Imsafm-2" value="gvr" style="rounded=0;whiteSpace=wrap;html=1;fontFamily=Courier New;fontSize=14;" vertex="1" parent="1">
          <mxGeometry x="200" y="260" width="140" height="20" as="geometry" />
        </mxCell>
        <mxCell id="08gfz9l8Pu61K-Imsafm-4" style="edgeStyle=orthogonalEdgeStyle;rounded=0;orthogonalLoop=1;jettySize=auto;html=1;entryX=0.5;entryY=1;entryDx=0;entryDy=0;" edge="1" parent="1" source="08gfz9l8Pu61K-Imsafm-3" target="08gfz9l8Pu61K-Imsafm-1">
          <mxGeometry relative="1" as="geometry" />
        </mxCell>
        <mxCell id="08gfz9l8Pu61K-Imsafm-3" value="informer" style="rounded=0;whiteSpace=wrap;html=1;fontFamily=Courier New;fontSize=14;" vertex="1" parent="1">
          <mxGeometry x="210" y="360" width="120" height="40" as="geometry" />
        </mxCell>
        <mxCell id="08gfz9l8Pu61K-Imsafm-10" style="rounded=0;orthogonalLoop=1;jettySize=auto;html=1;entryX=0;entryY=0.5;entryDx=0;entryDy=0;endArrow=classic;endFill=1;endSize=4;startSize=4;edgeStyle=orthogonalEdgeStyle;" edge="1" parent="1" target="08gfz9l8Pu61K-Imsafm-5">
          <mxGeometry relative="1" as="geometry">
            <mxPoint x="340" y="300" as="sourcePoint" />
            <Array as="points">
              <mxPoint x="390" y="300" />
              <mxPoint x="390" y="220" />
            </Array>
          </mxGeometry>
        </mxCell>
        <mxCell id="08gfz9l8Pu61K-Imsafm-5" value="addFunc" style="rounded=0;whiteSpace=wrap;html=1;fontFamily=Courier New;fontSize=14;" vertex="1" parent="1">
          <mxGeometry x="440" y="210" width="120" height="20" as="geometry" />
        </mxCell>
        <mxCell id="08gfz9l8Pu61K-Imsafm-6" value="updateFunc" style="rounded=0;whiteSpace=wrap;html=1;fontFamily=Courier New;fontSize=14;" vertex="1" parent="1">
          <mxGeometry x="440" y="290" width="120" height="20" as="geometry" />
        </mxCell>
        <mxCell id="08gfz9l8Pu61K-Imsafm-11" style="rounded=0;orthogonalLoop=1;jettySize=auto;html=1;entryX=0;entryY=0.5;entryDx=0;entryDy=0;startSize=4;endSize=2;endArrow=classic;endFill=1;edgeStyle=orthogonalEdgeStyle;" edge="1" parent="1" target="08gfz9l8Pu61K-Imsafm-7">
          <mxGeometry relative="1" as="geometry">
            <mxPoint x="340" y="300" as="sourcePoint" />
            <Array as="points">
              <mxPoint x="390" y="300" />
              <mxPoint x="390" y="380" />
            </Array>
          </mxGeometry>
        </mxCell>
        <mxCell id="08gfz9l8Pu61K-Imsafm-7" value="deleteFunc" style="rounded=0;whiteSpace=wrap;html=1;fontFamily=Courier New;fontSize=14;" vertex="1" parent="1">
          <mxGeometry x="440" y="370" width="120" height="20" as="geometry" />
        </mxCell>
        <mxCell id="08gfz9l8Pu61K-Imsafm-12" value="queue" style="rounded=0;whiteSpace=wrap;html=1;fontFamily=Courier New;fontSize=14;" vertex="1" parent="1">
          <mxGeometry x="1050" y="285" width="120" height="20" as="geometry" />
        </mxCell>
        <mxCell id="08gfz9l8Pu61K-Imsafm-21" value="get event" style="edgeStyle=orthogonalEdgeStyle;rounded=0;orthogonalLoop=1;jettySize=auto;html=1;entryX=0.5;entryY=1;entryDx=0;entryDy=0;exitX=1;exitY=0.5;exitDx=0;exitDy=0;fontFamily=Courier New;fontSize=8;" edge="1" parent="1" source="08gfz9l8Pu61K-Imsafm-20" target="08gfz9l8Pu61K-Imsafm-12">
          <mxGeometry relative="1" as="geometry">
            <Array as="points">
              <mxPoint x="1110" y="460" />
            </Array>
          </mxGeometry>
        </mxCell>
        <mxCell id="08gfz9l8Pu61K-Imsafm-23" style="edgeStyle=orthogonalEdgeStyle;rounded=0;orthogonalLoop=1;jettySize=auto;html=1;entryX=1;entryY=0.5;entryDx=0;entryDy=0;" edge="1" parent="1" source="08gfz9l8Pu61K-Imsafm-20" target="08gfz9l8Pu61K-Imsafm-22">
          <mxGeometry relative="1" as="geometry" />
        </mxCell>
        <mxCell id="08gfz9l8Pu61K-Imsafm-20" value="worker" style="rounded=0;whiteSpace=wrap;html=1;fontFamily=Courier New;fontSize=14;" vertex="1" parent="1">
          <mxGeometry x="920" y="440" width="120" height="40" as="geometry" />
        </mxCell>
        <mxCell id="08gfz9l8Pu61K-Imsafm-28" style="edgeStyle=orthogonalEdgeStyle;rounded=0;orthogonalLoop=1;jettySize=auto;html=1;entryX=0.5;entryY=0;entryDx=0;entryDy=0;" edge="1" parent="1" source="08gfz9l8Pu61K-Imsafm-22" target="08gfz9l8Pu61K-Imsafm-24">
          <mxGeometry relative="1" as="geometry">
            <Array as="points">
              <mxPoint x="490" y="520" />
              <mxPoint x="300" y="520" />
            </Array>
          </mxGeometry>
        </mxCell>
        <mxCell id="08gfz9l8Pu61K-Imsafm-29" style="edgeStyle=orthogonalEdgeStyle;rounded=0;orthogonalLoop=1;jettySize=auto;html=1;entryX=0.5;entryY=0;entryDx=0;entryDy=0;" edge="1" parent="1" source="08gfz9l8Pu61K-Imsafm-22" target="08gfz9l8Pu61K-Imsafm-25">
          <mxGeometry relative="1" as="geometry">
            <Array as="points">
              <mxPoint x="490" y="520" />
              <mxPoint x="427" y="520" />
            </Array>
          </mxGeometry>
        </mxCell>
        <mxCell id="08gfz9l8Pu61K-Imsafm-30" style="edgeStyle=orthogonalEdgeStyle;rounded=0;orthogonalLoop=1;jettySize=auto;html=1;entryX=0.5;entryY=0;entryDx=0;entryDy=0;" edge="1" parent="1" source="08gfz9l8Pu61K-Imsafm-22" target="08gfz9l8Pu61K-Imsafm-26">
          <mxGeometry relative="1" as="geometry">
            <Array as="points">
              <mxPoint x="490" y="520" />
              <mxPoint x="553" y="520" />
            </Array>
          </mxGeometry>
        </mxCell>
        <mxCell id="08gfz9l8Pu61K-Imsafm-31" style="edgeStyle=orthogonalEdgeStyle;rounded=0;orthogonalLoop=1;jettySize=auto;html=1;entryX=0.5;entryY=0;entryDx=0;entryDy=0;" edge="1" parent="1" source="08gfz9l8Pu61K-Imsafm-22" target="08gfz9l8Pu61K-Imsafm-27">
          <mxGeometry relative="1" as="geometry">
            <Array as="points">
              <mxPoint x="490" y="520" />
              <mxPoint x="680" y="520" />
            </Array>
          </mxGeometry>
        </mxCell>
        <mxCell id="08gfz9l8Pu61K-Imsafm-22" value="external client" style="rounded=0;whiteSpace=wrap;html=1;fontFamily=Courier New;" vertex="1" parent="1">
          <mxGeometry x="700" y="440" width="120" height="40" as="geometry" />
        </mxCell>
        <mxCell id="08gfz9l8Pu61K-Imsafm-53" style="edgeStyle=orthogonalEdgeStyle;rounded=0;orthogonalLoop=1;jettySize=auto;html=1;entryX=0.5;entryY=0;entryDx=0;entryDy=0;" edge="1" parent="1" source="08gfz9l8Pu61K-Imsafm-24" target="08gfz9l8Pu61K-Imsafm-47">
          <mxGeometry relative="1" as="geometry" />
        </mxCell>
        <mxCell id="08gfz9l8Pu61K-Imsafm-24" value="observe" style="rounded=0;whiteSpace=wrap;html=1;fontFamily=Courier New;" vertex="1" parent="1">
          <mxGeometry x="260" y="558" width="80" height="40" as="geometry" />
        </mxCell>
        <mxCell id="08gfz9l8Pu61K-Imsafm-50" style="edgeStyle=orthogonalEdgeStyle;rounded=0;orthogonalLoop=1;jettySize=auto;html=1;entryX=0.5;entryY=0;entryDx=0;entryDy=0;" edge="1" parent="1" source="08gfz9l8Pu61K-Imsafm-25" target="08gfz9l8Pu61K-Imsafm-44">
          <mxGeometry relative="1" as="geometry" />
        </mxCell>
        <mxCell id="08gfz9l8Pu61K-Imsafm-25" value="create" style="rounded=0;whiteSpace=wrap;html=1;fontFamily=Courier New;" vertex="1" parent="1">
          <mxGeometry x="387" y="558" width="80" height="40" as="geometry" />
        </mxCell>
        <mxCell id="08gfz9l8Pu61K-Imsafm-51" style="edgeStyle=orthogonalEdgeStyle;rounded=0;orthogonalLoop=1;jettySize=auto;html=1;entryX=0.5;entryY=0;entryDx=0;entryDy=0;" edge="1" parent="1" source="08gfz9l8Pu61K-Imsafm-26" target="08gfz9l8Pu61K-Imsafm-45">
          <mxGeometry relative="1" as="geometry" />
        </mxCell>
        <mxCell id="08gfz9l8Pu61K-Imsafm-26" value="update" style="rounded=0;whiteSpace=wrap;html=1;fontFamily=Courier New;" vertex="1" parent="1">
          <mxGeometry x="513" y="558" width="80" height="40" as="geometry" />
        </mxCell>
        <mxCell id="08gfz9l8Pu61K-Imsafm-52" style="edgeStyle=orthogonalEdgeStyle;rounded=0;orthogonalLoop=1;jettySize=auto;html=1;entryX=0.5;entryY=0;entryDx=0;entryDy=0;" edge="1" parent="1" source="08gfz9l8Pu61K-Imsafm-27" target="08gfz9l8Pu61K-Imsafm-46">
          <mxGeometry relative="1" as="geometry" />
        </mxCell>
        <mxCell id="08gfz9l8Pu61K-Imsafm-27" value="delete" style="rounded=0;whiteSpace=wrap;html=1;fontFamily=Courier New;" vertex="1" parent="1">
          <mxGeometry x="640" y="558" width="80" height="40" as="geometry" />
        </mxCell>
        <mxCell id="08gfz9l8Pu61K-Imsafm-36" style="edgeStyle=orthogonalEdgeStyle;rounded=0;orthogonalLoop=1;jettySize=auto;html=1;exitX=1;exitY=0.5;exitDx=0;exitDy=0;" edge="1" parent="1" source="08gfz9l8Pu61K-Imsafm-7" target="08gfz9l8Pu61K-Imsafm-32">
          <mxGeometry relative="1" as="geometry" />
        </mxCell>
        <mxCell id="08gfz9l8Pu61K-Imsafm-38" value="type: delete" style="edgeLabel;html=1;align=center;verticalAlign=middle;resizable=0;points=[];fontFamily=Courier New;fontSize=8;" vertex="1" connectable="0" parent="08gfz9l8Pu61K-Imsafm-36">
          <mxGeometry x="-0.6195" y="1" relative="1" as="geometry">
            <mxPoint x="24" y="1" as="offset" />
          </mxGeometry>
        </mxCell>
        <mxCell id="08gfz9l8Pu61K-Imsafm-39" style="edgeStyle=orthogonalEdgeStyle;rounded=0;orthogonalLoop=1;jettySize=auto;html=1;exitX=1;exitY=0.5;exitDx=0;exitDy=0;entryX=0.5;entryY=0;entryDx=0;entryDy=0;" edge="1" parent="1" source="08gfz9l8Pu61K-Imsafm-5" target="08gfz9l8Pu61K-Imsafm-32">
          <mxGeometry relative="1" as="geometry" />
        </mxCell>
        <mxCell id="08gfz9l8Pu61K-Imsafm-40" value="type: create" style="edgeLabel;html=1;align=center;verticalAlign=middle;resizable=0;points=[];fontSize=8;fontFamily=Courier New;" vertex="1" connectable="0" parent="08gfz9l8Pu61K-Imsafm-39">
          <mxGeometry x="0.1666" y="1" relative="1" as="geometry">
            <mxPoint x="-121" y="1" as="offset" />
          </mxGeometry>
        </mxCell>
        <mxCell id="08gfz9l8Pu61K-Imsafm-41" style="edgeStyle=orthogonalEdgeStyle;rounded=0;orthogonalLoop=1;jettySize=auto;html=1;exitX=1;exitY=0.5;exitDx=0;exitDy=0;" edge="1" parent="1" source="08gfz9l8Pu61K-Imsafm-6" target="08gfz9l8Pu61K-Imsafm-32">
          <mxGeometry relative="1" as="geometry" />
        </mxCell>
        <mxCell id="08gfz9l8Pu61K-Imsafm-42" value="type: observe or update" style="edgeLabel;html=1;align=center;verticalAlign=middle;resizable=0;points=[];fontSize=8;fontFamily=Courier New;" vertex="1" connectable="0" parent="08gfz9l8Pu61K-Imsafm-41">
          <mxGeometry x="0.0689" y="-1" relative="1" as="geometry">
            <mxPoint x="-11" y="-1" as="offset" />
          </mxGeometry>
        </mxCell>
        <mxCell id="08gfz9l8Pu61K-Imsafm-32" value="event" style="swimlane;fontStyle=0;childLayout=stackLayout;horizontal=1;startSize=30;horizontalStack=0;resizeParent=1;resizeParentMax=0;resizeLast=0;collapsible=1;marginBottom=0;whiteSpace=wrap;html=1;fontFamily=Courier New;fontSize=12;" vertex="1" parent="1">
          <mxGeometry x="750" y="255" width="240" height="90" as="geometry" />
        </mxCell>
        <mxCell id="08gfz9l8Pu61K-Imsafm-33" value="&lt;b&gt;identifier&lt;/b&gt; (unique)" style="text;strokeColor=none;fillColor=none;align=left;verticalAlign=middle;spacingLeft=4;spacingRight=4;overflow=hidden;points=[[0,0.5],[1,0.5]];portConstraint=eastwest;rotatable=0;whiteSpace=wrap;html=1;fontFamily=Courier New;fontSize=10;" vertex="1" parent="08gfz9l8Pu61K-Imsafm-32">
          <mxGeometry y="30" width="240" height="20" as="geometry" />
        </mxCell>
        <mxCell id="08gfz9l8Pu61K-Imsafm-34" value="&lt;b&gt;type&lt;/b&gt; (Observe, Create, Update, Delete)" style="text;strokeColor=none;fillColor=none;align=left;verticalAlign=middle;spacingLeft=4;spacingRight=4;overflow=hidden;points=[[0,0.5],[1,0.5]];portConstraint=eastwest;rotatable=0;whiteSpace=wrap;html=1;fontFamily=Courier New;fontSize=10;" vertex="1" parent="08gfz9l8Pu61K-Imsafm-32">
          <mxGeometry y="50" width="240" height="20" as="geometry" />
        </mxCell>
        <mxCell id="08gfz9l8Pu61K-Imsafm-35" value="&lt;b&gt;objectRef&lt;/b&gt; (gvk, name, namespace)" style="text;strokeColor=none;fillColor=none;align=left;verticalAlign=middle;spacingLeft=4;spacingRight=4;overflow=hidden;points=[[0,0.5],[1,0.5]];portConstraint=eastwest;rotatable=0;whiteSpace=wrap;html=1;fontFamily=Courier New;fontSize=10;" vertex="1" parent="08gfz9l8Pu61K-Imsafm-32">
          <mxGeometry y="70" width="240" height="20" as="geometry" />
        </mxCell>
        <mxCell id="08gfz9l8Pu61K-Imsafm-43" style="edgeStyle=orthogonalEdgeStyle;rounded=0;orthogonalLoop=1;jettySize=auto;html=1;entryX=0;entryY=0.5;entryDx=0;entryDy=0;" edge="1" parent="1" source="08gfz9l8Pu61K-Imsafm-33" target="08gfz9l8Pu61K-Imsafm-12">
          <mxGeometry relative="1" as="geometry" />
        </mxCell>
        <mxCell id="08gfz9l8Pu61K-Imsafm-44" value="install&lt;br&gt;helm chart" style="rounded=0;whiteSpace=wrap;html=1;fontFamily=Courier New;" vertex="1" parent="1">
          <mxGeometry x="377" y="640" width="100" height="40" as="geometry" />
        </mxCell>
        <mxCell id="08gfz9l8Pu61K-Imsafm-45" value="upgrade&lt;br&gt;helm chart" style="rounded=0;whiteSpace=wrap;html=1;fontFamily=Courier New;" vertex="1" parent="1">
          <mxGeometry x="503" y="640" width="100" height="40" as="geometry" />
        </mxCell>
        <mxCell id="08gfz9l8Pu61K-Imsafm-46" value="uninstall&lt;br&gt;helm chart" style="rounded=0;whiteSpace=wrap;html=1;fontFamily=Courier New;" vertex="1" parent="1">
          <mxGeometry x="630" y="640" width="100" height="40" as="geometry" />
        </mxCell>
        <mxCell id="08gfz9l8Pu61K-Imsafm-54" style="edgeStyle=orthogonalEdgeStyle;rounded=0;orthogonalLoop=1;jettySize=auto;html=1;entryX=0.5;entryY=0;entryDx=0;entryDy=0;" edge="1" parent="1" source="08gfz9l8Pu61K-Imsafm-47" target="08gfz9l8Pu61K-Imsafm-48">
          <mxGeometry relative="1" as="geometry" />
        </mxCell>
        <mxCell id="08gfz9l8Pu61K-Imsafm-47" value="resolve&lt;br&gt;helm chart&lt;br&gt;template with values" style="rounded=0;whiteSpace=wrap;html=1;fontFamily=Courier New;" vertex="1" parent="1">
          <mxGeometry x="250" y="640" width="100" height="80" as="geometry" />
        </mxCell>
        <mxCell id="08gfz9l8Pu61K-Imsafm-55" style="edgeStyle=orthogonalEdgeStyle;rounded=0;orthogonalLoop=1;jettySize=auto;html=1;entryX=0.5;entryY=0;entryDx=0;entryDy=0;" edge="1" parent="1" source="08gfz9l8Pu61K-Imsafm-48" target="08gfz9l8Pu61K-Imsafm-49">
          <mxGeometry relative="1" as="geometry" />
        </mxCell>
        <mxCell id="08gfz9l8Pu61K-Imsafm-48" value="check each resource for readiness" style="rounded=0;whiteSpace=wrap;html=1;fontFamily=Courier New;" vertex="1" parent="1">
          <mxGeometry x="250" y="760" width="100" height="80" as="geometry" />
        </mxCell>
        <mxCell id="08gfz9l8Pu61K-Imsafm-56" style="edgeStyle=orthogonalEdgeStyle;rounded=0;orthogonalLoop=1;jettySize=auto;html=1;entryX=1;entryY=0.5;entryDx=0;entryDy=0;dashed=1;" edge="1" parent="1" source="08gfz9l8Pu61K-Imsafm-49" target="08gfz9l8Pu61K-Imsafm-12">
          <mxGeometry relative="1" as="geometry" />
        </mxCell>
        <mxCell id="08gfz9l8Pu61K-Imsafm-49" value="if a resource is not ready create and add a new &quot;update&quot; event to the work queue" style="rounded=0;whiteSpace=wrap;html=1;fontFamily=Courier New;dashed=1;" vertex="1" parent="1">
          <mxGeometry x="250" y="880" width="100" height="100" as="geometry" />
        </mxCell>
        <mxCell id="08gfz9l8Pu61K-Imsafm-57" value="resyncInterval" style="html=1;verticalLabelPosition=middle;align=center;labelBackgroundColor=#ffffff;verticalAlign=middle;strokeWidth=2;strokeColor=#000000;shadow=0;dashed=0;shape=mxgraph.ios7.icons.reload;aspect=fixed;fontFamily=Courier New;labelPosition=center;" vertex="1" parent="1">
          <mxGeometry x="940" y="630" width="120" height="135" as="geometry" />
        </mxCell>
        <mxCell id="08gfz9l8Pu61K-Imsafm-58" value="COMPOSITION_CONTROLLER_RESYNC_INTERVAL" style="text;html=1;align=center;verticalAlign=middle;resizable=0;points=[];autosize=1;strokeColor=none;fillColor=none;fontFamily=Courier New;fontSize=8;" vertex="1" parent="1">
          <mxGeometry x="895" y="770" width="210" height="20" as="geometry" />
        </mxCell>
        <mxCell id="08gfz9l8Pu61K-Imsafm-59" value="COMPOSITION_CONTROLLER_GROUP" style="text;html=1;align=left;verticalAlign=middle;resizable=0;points=[];autosize=1;strokeColor=none;fillColor=none;fontFamily=Courier New;fontSize=8;" vertex="1" parent="1">
          <mxGeometry x="190" y="180" width="160" height="20" as="geometry" />
        </mxCell>
        <mxCell id="08gfz9l8Pu61K-Imsafm-60" value="COMPOSITION_CONTROLLER_VERSION" style="text;html=1;align=left;verticalAlign=middle;resizable=0;points=[];autosize=1;strokeColor=none;fillColor=none;fontFamily=Courier New;fontSize=8;" vertex="1" parent="1">
          <mxGeometry x="185" y="200" width="170" height="20" as="geometry" />
        </mxCell>
        <mxCell id="08gfz9l8Pu61K-Imsafm-61" value="COMPOSITION_CONTROLLER_RESOURCE" style="text;html=1;align=left;verticalAlign=middle;resizable=0;points=[];autosize=1;strokeColor=none;fillColor=none;fontFamily=Courier New;fontSize=8;" vertex="1" parent="1">
          <mxGeometry x="185" y="220" width="170" height="20" as="geometry" />
        </mxCell>
      </root>
    </mxGraphModel>
  </diagram>
</mxfile>
